mtllib materials.mtl
v 0.3179243 0.007933497 -0.2207592
v -0.3426567 0.005303025 -0.2231579
v -0.342589 -0.01157141 -0.2232797
v 0.3179917 -0.008941174 -0.2208811
v -0.3442015 -0.01481247 0.2243401
v -0.3442692 0.002062082 0.224462
v 0.3163118 0.004692435 0.2268608
v 0.3163793 -0.01218212 0.2267388
v -0.2058337 -0.009353518 -0.01085114
v -0.1657272 -0.009353638 -0.0108512
v -0.1657271 0.01030648 -0.01085117
v -0.2058337 0.0103066 -0.01085117
v -0.2058337 -0.009353518 0.008388221
v -0.2058337 0.01030672 0.008388221
v -0.1657272 0.01030648 0.008388191
v -0.1657272 -0.009353518 0.008388191
v -0.006974593 -0.009523511 -0.01090437
v 0.03313191 -0.00952363 -0.01090443
v 0.03313193 0.01013649 -0.0109044
v -0.006974604 0.0101366 -0.0109044
v -0.006974593 -0.009523511 0.008334994
v -0.006974589 0.01013672 0.008334994
v 0.03313192 0.01013649 0.008334965
v 0.03313191 -0.009523511 0.008334965
v -0.1058337 -0.009353518 -0.01085114
v -0.06572717 -0.009353638 -0.0108512
v -0.06572716 0.01030648 -0.01085117
v -0.1058337 0.0103066 -0.01085117
v -0.1058337 -0.009353518 0.008388221
v -0.1058337 0.01030672 0.008388221
v -0.06572717 0.01030648 0.008388191
v -0.06572717 -0.009353518 0.008388191
v -0.2965943 -0.009353518 -0.01085114
v -0.2564878 -0.009353638 -0.0108512
v -0.2564877 0.01030648 -0.01085117
v -0.2965943 0.0103066 -0.01085117
v -0.2965943 -0.009353518 0.008388221
v -0.2965942 0.01030672 0.008388221
v -0.2564877 0.01030648 0.008388191
v -0.2564878 -0.009353518 0.008388191
v 0.08340575 -0.009693265 -0.01085114
v 0.1235123 -0.009693384 -0.0108512
v 0.1235123 0.009966731 -0.01085117
v 0.08340573 0.00996685 -0.01085117
v 0.08340575 -0.009693265 0.008388221
v 0.08340575 0.009966969 0.008388221
v 0.1235123 0.009966731 0.008388191
v 0.1235123 -0.009693265 0.008388191
v 0.1734058 -0.009353518 -0.0107446
v 0.2135123 -0.009353638 -0.01074466
v 0.2135123 0.01030648 -0.01074463
v 0.1734057 0.0103066 -0.01074463
v 0.1734058 -0.009353518 0.008494765
v 0.1734058 0.01030672 0.008494765
v 0.2135123 0.01030648 0.008494735
v 0.2135123 -0.009353518 0.008494705
v 0.2541663 -0.009353518 -0.01085114
v 0.2942728 -0.009353638 -0.0108512
v 0.2942728 0.01030648 -0.01085117
v 0.2541663 0.0103066 -0.01085117
v 0.2541663 -0.009353518 0.008388221
v 0.2541663 0.01030672 0.008388221
v 0.2942728 0.01030648 0.008388191
v 0.2942728 -0.009353518 0.008388191
v 0.3235122 -0.009693384 -0.3516118
v 0.3235122 -0.009693384 -0.2216118
v 0.3235122 0.02030659 -0.2216118
v 0.3235122 0.02030659 -0.3516118
v -0.3464878 -0.009693384 -0.3516118
v -0.3464878 0.02030659 -0.3516118
v -0.3464878 0.02030659 -0.2216118
v -0.3464878 -0.009693384 -0.2216118
v 0.3235122 -0.01969337 0.2283881
v 0.3235122 -0.01969337 0.3583882
v 0.3235122 0.0103066 0.3583882
v 0.3235122 0.0103066 0.2283881
v -0.3464878 -0.01969326 0.2283881
v -0.3464878 0.01030672 0.2283881
v -0.3464878 0.01030672 0.3583882
v -0.3464878 -0.01969326 0.3583882
vn 0.00360228 0.007234239 -0.9999674
vn -0.003602361 -0.007239681 0.9999673
vn 0.004007998 -0.9999659 -0.007225899
vn -0.004008057 0.9999659 0.007225901
vn 0.9999855 0.003970763 0.003630905
vn -0.9999855 -0.003984387 -0.003631229
vn -7.229602E-07 2.348085E-07 -1
vn 1.001614E-06 -7.197653E-07 1
vn -2.803075E-06 -1 2.014325E-06
vn 2.757155E-06 1 -2.25636E-06
vn -1 -1.313622E-07 3.645891E-07
vn 1 -6.485975E-07 2.920969E-07
vn -7.229602E-07 2.348085E-07 -1
vn 1.001614E-06 -7.197653E-07 1
vn -2.803075E-06 -1 2.014325E-06
vn 2.757155E-06 1 -2.25636E-06
vn -1 -1.313622E-07 3.645891E-07
vn 1 -6.485975E-07 2.920969E-07
vn -7.229602E-07 2.348085E-07 -1
vn 1.001614E-06 -7.197653E-07 1
vn -2.803075E-06 -1 2.014325E-06
vn 2.757155E-06 1 -2.25636E-06
vn -1 -1.313622E-07 3.645891E-07
vn 1 -6.485975E-07 2.920969E-07
vn -7.229602E-07 2.348085E-07 -1
vn 1.001614E-06 -7.197653E-07 1
vn -2.803075E-06 -1 2.014325E-06
vn 2.757155E-06 1 -2.25636E-06
vn -1 -1.313622E-07 3.645891E-07
vn 1 -6.485975E-07 2.920969E-07
vn -7.229602E-07 2.348085E-07 -1
vn 1.001614E-06 -7.197653E-07 1
vn -2.803075E-06 -1 2.014325E-06
vn 2.757155E-06 1 -2.25636E-06
vn -1 -1.313622E-07 3.645891E-07
vn 1 -6.485975E-07 2.920969E-07
vn -7.229602E-07 2.348085E-07 -1
vn 1.001614E-06 -7.197653E-07 1
vn -2.803075E-06 -1 2.014325E-06
vn 2.757155E-06 1 -2.25636E-06
vn -1 -1.313622E-07 3.645891E-07
vn 1 -6.485975E-07 2.920969E-07
vn -7.229602E-07 2.348085E-07 -1
vn 1.001614E-06 -7.197653E-07 1
vn -2.803075E-06 -1 2.014325E-06
vn 2.757155E-06 1 -2.25636E-06
vn -1 -1.313622E-07 3.645891E-07
vn 1 -6.485975E-07 2.920969E-07
vn 1 -1.755662E-07 -2.865605E-08
vn -1 9.108816E-07 0
vn 0 -1 2.343811E-09
vn -2.780068E-08 1 -1.403206E-07
vn -6.857982E-10 0 -1
vn 1.66248E-08 3.725291E-07 1
vn 1 -3.504117E-07 -2.865611E-08
vn -1 1.085727E-06 1.898346E-13
vn -1.748456E-07 -1 -1.725017E-07
vn 1.470449E-07 1 3.452492E-08
vn -6.857982E-10 1.748456E-07 -1
vn 1.662487E-08 1.976836E-07 1
vt -0.1027265 0.08157061
vt -0.1319397 0.02232207
vt -0.1304262 0.02157581
vt -0.101213 0.08082432
vt 0.1304259 0.02157543
vt 0.1319394 0.0223217
vt 0.1027263 0.08157028
vt 0.1012128 0.08082401
vt -0.07131849 -0.01482072
vt -0.02925645 -0.03013577
vt -0.006655471 0.03193671
vt -0.04871752 0.04725175
vt 0.006655465 0.03193673
vt 0.02925645 -0.03013577
vt 0.0713185 -0.01482071
vt 0.04871752 0.04725178
vt 0.06133728 0.1119842
vt 0.06233972 0.1133417
vt 0.02633025 0.1399327
vt 0.02532781 0.1385752
vt -0.02633201 0.1399322
vt -0.06234113 0.1133407
vt -0.06133867 0.1119832
vt -0.02532957 0.1385747
vt -0.1247737 0.03450916
vt -0.1229801 0.03809639
vt -0.1247385 0.03897562
vt -0.1265322 0.03538838
vt 0.1247737 0.03450914
vt 0.1265322 0.03538837
vt 0.1247385 0.03897559
vt 0.1229801 0.03809637
vt -0.04598433 -0.01005452
vt -0.04417247 -0.0107016
vt -0.04282355 -0.006924605
vt -0.04463541 -0.006277515
vt 0.04598429 -0.01005453
vt 0.04463537 -0.006277529
vt 0.04282352 -0.006924619
vt 0.04417244 -0.01070162
vt -0.04134952 0.1265772
vt -0.04249223 0.128177
vt -0.04405781 0.1270587
vt -0.04291509 0.1254589
vt 0.04134952 0.1265771
vt 0.0429151 0.1254589
vt 0.04405782 0.1270587
vt 0.04249224 0.1281769
vt -0.1158653 0.05228805
vt -0.1140716 0.05587528
vt -0.1158301 0.05675451
vt -0.1176237 0.05316728
vt 0.1158653 0.05228803
vt 0.1176237 0.05316726
vt 0.1158301 0.05675449
vt 0.1140716 0.05587526
vt -0.03930099 0.008674671
vt -0.03748914 0.008027581
vt -0.03614022 0.01180458
vt -0.03795207 0.01245167
vt 0.03930096 0.008674656
vt 0.03795204 0.01245166
vt 0.03614018 0.01180457
vt 0.03748911 0.008027567
vt -0.04133531 0.1265664
vt -0.04247802 0.1281662
vt -0.04404361 0.127048
vt -0.04290088 0.1254481
vt 0.04133531 0.1265664
vt 0.04290089 0.1254481
vt 0.04404361 0.1270479
vt 0.04247803 0.1281662
vt -0.1203016 0.04345343
vt -0.118508 0.04704066
vt -0.1202664 0.04791989
vt -0.12206 0.04433265
vt 0.1203016 0.04345341
vt 0.12206 0.04433264
vt 0.1202664 0.04791987
vt 0.118508 0.04704065
vt -0.04262097 -0.0006370961
vt -0.04080912 -0.001284185
vt -0.03946019 0.002492814
vt -0.04127205 0.003139904
vt 0.04262093 -0.0006371115
vt 0.04127201 0.00313989
vt 0.03946016 0.002492799
vt 0.04080908 -0.0012842
vt -0.04134952 0.1265771
vt -0.04249223 0.128177
vt -0.04405782 0.1270587
vt -0.04291509 0.1254589
vt 0.04134952 0.1265771
vt 0.0429151 0.1254589
vt 0.04405782 0.1270587
vt 0.04249225 0.1281769
vt -0.1288327 0.02639128
vt -0.127039 0.02997851
vt -0.1287975 0.03085774
vt -0.1305911 0.02727051
vt 0.1288326 0.02639126
vt 0.1305911 0.0272705
vt 0.1287975 0.03085772
vt 0.127039 0.0299785
vt -0.04903693 -0.01860182
vt -0.04722508 -0.01924891
vt -0.04587616 -0.01547191
vt -0.04768801 -0.01482482
vt 0.0490369 -0.01860184
vt 0.04768797 -0.01482484
vt 0.04587612 -0.01547193
vt 0.04722504 -0.01924893
vt -0.04134951 0.1265772
vt -0.04249223 0.128177
vt -0.04405781 0.1270587
vt -0.04291508 0.1254589
vt 0.04134952 0.1265771
vt 0.0429151 0.1254589
vt 0.04405782 0.1270587
vt 0.04249224 0.1281769
vt -0.1118082 0.06036432
vt -0.1100145 0.06395156
vt -0.111773 0.06483079
vt -0.1135666 0.06124355
vt 0.1118081 0.06036431
vt 0.1135666 0.06124354
vt 0.111773 0.06483077
vt 0.1100145 0.06395154
vt -0.03625616 0.01718438
vt -0.03444431 0.01653729
vt -0.03309539 0.02031429
vt -0.03490724 0.02096138
vt 0.03625613 0.01718436
vt 0.03490721 0.02096136
vt 0.03309536 0.02031427
vt 0.03444428 0.01653728
vt -0.04132978 0.1265495
vt -0.04247249 0.1281493
vt -0.04403807 0.1270311
vt -0.04289535 0.1254312
vt 0.04132978 0.1265495
vt 0.04289536 0.1254312
vt 0.04403807 0.127031
vt 0.0424725 0.1281493
vt -0.1078136 0.06842937
vt -0.10602 0.0720166
vt -0.1077784 0.07289582
vt -0.1095721 0.06930859
vt 0.1078136 0.06842934
vt 0.1095721 0.06930858
vt 0.1077784 0.0728958
vt 0.10602 0.07201658
vt -0.03321911 0.02565647
vt -0.03140726 0.02500938
vt -0.03005833 0.02878639
vt -0.03187019 0.02943347
vt 0.03321908 0.02565646
vt 0.03187015 0.02943346
vt 0.0300583 0.02878637
vt 0.03140722 0.02500937
vt -0.0413582 0.1265709
vt -0.04250091 0.1281708
vt -0.04406649 0.1270525
vt -0.04292377 0.1254527
vt 0.0413582 0.126571
vt 0.04292377 0.1254527
vt 0.04406649 0.1270525
vt 0.04250092 0.1281708
vt -0.1042019 0.07565281
vt -0.1024083 0.07924004
vt -0.1041667 0.08011927
vt -0.1059604 0.07653204
vt 0.1042019 0.07565279
vt 0.1059604 0.07653202
vt 0.1041667 0.08011925
vt 0.1024083 0.07924003
vt -0.03051287 0.03326562
vt -0.02870102 0.03261853
vt -0.0273521 0.03639553
vt -0.02916395 0.03704262
vt 0.03051284 0.03326561
vt 0.02916392 0.03704261
vt 0.02735206 0.03639552
vt 0.02870099 0.03261852
vt -0.04134952 0.1265771
vt -0.04249224 0.1281769
vt -0.04405782 0.1270587
vt -0.0429151 0.1254589
vt 0.04134953 0.1265772
vt 0.04291511 0.1254589
vt 0.04405782 0.1270587
vt 0.04249225 0.128177
vt 0.01360095 0.1463558
vt 0.02417949 0.1387997
vt 0.0259232 0.1412409
vt 0.01534466 0.148797
vt -0.01360083 0.1463558
vt -0.01534454 0.148797
vt -0.02592308 0.1412409
vt -0.02417937 0.1387997
vt -0.06027148 0.05125766
vt -0.08280603 -0.01183904
vt -0.07056338 -0.01621142
vt -0.04802883 0.04688529
vt 0.06027147 0.05125766
vt 0.04802882 0.04688529
vt 0.07056335 -0.01621142
vt 0.08280601 -0.01183905
vt -0.1010703 0.08184009
vt -0.1037536 0.08318172
vt -0.1337169 0.02325511
vt -0.1310336 0.02191347
vt 0.1010703 0.08184011
vt 0.1310336 0.02191349
vt 0.1337169 0.02325513
vt 0.1037536 0.08318175
vt 0.06021624 0.1118303
vt 0.07079478 0.1042742
vt 0.0725385 0.1067154
vt 0.06195995 0.1142715
vt -0.06021614 0.1118303
vt -0.06195985 0.1142715
vt -0.0725384 0.1067154
vt -0.07079469 0.1042742
vt -0.005650482 0.03175014
vt -0.02818503 -0.03134656
vt -0.01594238 -0.03571894
vt 0.006592167 0.02737777
vt 0.005650468 0.03175014
vt -0.006592181 0.02737777
vt 0.01594236 -0.03571894
vt 0.02818501 -0.03134657
vt -0.1001758 0.08139287
vt -0.1028591 0.08273451
vt -0.1328225 0.02280789
vt -0.1301392 0.02146625
vt 0.1001758 0.08139288
vt 0.1301392 0.02146626
vt 0.1328224 0.0228079
vt 0.1028591 0.08273452
o group336620870
g mesh336620870
usemtl mat17
f 4/4/1 3/3/1 2/2/1 1/1/1
f 8/8/2 7/7/2 6/6/2 5/5/2
f 4/12/3 8/11/3 5/10/3 3/9/3
f 1/16/4 2/15/4 6/14/4 7/13/4
f 4/20/5 1/19/5 7/18/5 8/17/5
f 3/24/6 5/23/6 6/22/6 2/21/6
o group1850925880
g mesh1850925880
usemtl mat21
f 12/28/7 11/27/7 10/26/7 9/25/7
f 16/32/8 15/31/8 14/30/8 13/29/8
f 10/36/9 16/35/9 13/34/9 9/33/9
f 14/40/10 15/39/10 11/38/10 12/37/10
f 13/44/11 14/43/11 12/42/11 9/41/11
f 11/48/12 15/47/12 16/46/12 10/45/12
o group1517981274
g mesh1517981274
usemtl mat21
f 20/52/13 19/51/13 18/50/13 17/49/13
f 24/56/14 23/55/14 22/54/14 21/53/14
f 18/60/15 24/59/15 21/58/15 17/57/15
f 22/64/16 23/63/16 19/62/16 20/61/16
f 21/68/17 22/67/17 20/66/17 17/65/17
f 19/72/18 23/71/18 24/70/18 18/69/18
o group1266234480
g mesh1266234480
usemtl mat21
f 28/76/19 27/75/19 26/74/19 25/73/19
f 32/80/20 31/79/20 30/78/20 29/77/20
f 26/84/21 32/83/21 29/82/21 25/81/21
f 30/88/22 31/87/22 27/86/22 28/85/22
f 29/92/23 30/91/23 28/90/23 25/89/23
f 27/96/24 31/95/24 32/94/24 26/93/24
o group1691973700
g mesh1691973700
usemtl mat21
f 36/100/25 35/99/25 34/98/25 33/97/25
f 40/104/26 39/103/26 38/102/26 37/101/26
f 34/108/27 40/107/27 37/106/27 33/105/27
f 38/112/28 39/111/28 35/110/28 36/109/28
f 37/116/29 38/115/29 36/114/29 33/113/29
f 35/120/30 39/119/30 40/118/30 34/117/30
o group1797842388
g mesh1797842388
usemtl mat21
f 44/124/31 43/123/31 42/122/31 41/121/31
f 48/128/32 47/127/32 46/126/32 45/125/32
f 42/132/33 48/131/33 45/130/33 41/129/33
f 46/136/34 47/135/34 43/134/34 44/133/34
f 45/140/35 46/139/35 44/138/35 41/137/35
f 43/144/36 47/143/36 48/142/36 42/141/36
o group231937087
g mesh231937087
usemtl mat21
f 52/148/37 51/147/37 50/146/37 49/145/37
f 56/152/38 55/151/38 54/150/38 53/149/38
f 50/156/39 56/155/39 53/154/39 49/153/39
f 54/160/40 55/159/40 51/158/40 52/157/40
f 53/164/41 54/163/41 52/162/41 49/161/41
f 51/168/42 55/167/42 56/166/42 50/165/42
o group1437559802
g mesh1437559802
usemtl mat21
f 60/172/43 59/171/43 58/170/43 57/169/43
f 64/176/44 63/175/44 62/174/44 61/173/44
f 58/180/45 64/179/45 61/178/45 57/177/45
f 62/184/46 63/183/46 59/182/46 60/181/46
f 61/188/47 62/187/47 60/186/47 57/185/47
f 59/192/48 63/191/48 64/190/48 58/189/48
o group524283309
g mesh524283309
usemtl mat15
f 68/196/49 67/195/49 66/194/49 65/193/49
f 72/200/50 71/199/50 70/198/50 69/197/50
f 66/204/51 72/203/51 69/202/51 65/201/51
f 70/208/52 71/207/52 67/206/52 68/205/52
f 69/212/53 70/211/53 68/210/53 65/209/53
f 67/216/54 71/215/54 72/214/54 66/213/54
o group444322953
g mesh444322953
usemtl mat15
f 76/220/55 75/219/55 74/218/55 73/217/55
f 80/224/56 79/223/56 78/222/56 77/221/56
f 74/228/57 80/227/57 77/226/57 73/225/57
f 78/232/58 79/231/58 75/230/58 76/229/58
f 77/236/59 78/235/59 76/234/59 73/233/59
f 75/240/60 79/239/60 80/238/60 74/237/60
