mtllib materials.mtl
v 0.02798286 -0.2075907 0.1788275
v -0.05201715 -0.2075907 0.1788275
v -0.05201721 0.05926657 0.1688274
v 0.0279828 0.05926657 0.1688275
v 0.02798289 -0.2175907 -0.1942877
v 0.02798283 0.05926657 -0.1742876
v -0.05201718 0.05926657 -0.1742876
v -0.05201712 -0.2175907 -0.1942877
v 0.02798289 -0.3275907 -0.002730072
v -0.05201715 -0.3275907 -0.002730072
v 0.004132926 0.1818476 0.05798978
v -0.03325328 0.1811968 0.05588573
v -0.03462756 0.154622 0.08852452
v 0.002758622 0.1552727 0.09062862
v 0.01048535 0.1827877 -0.05517417
v 0.01149732 0.2204801 -0.0848133
v 0.0140658 0.1915585 -0.1215057
v 0.01305386 0.1538659 -0.09186655
v -0.02690083 0.1821368 -0.05727822
v 0.00178659 0.2190431 0.08817607
v -0.03559962 0.2183924 0.08607197
v -0.02588889 0.2198293 -0.0869174
v -0.02332041 0.1909076 -0.1236098
v -0.02433237 0.1532152 -0.0939706
v 0.01121294 0.04855716 -0.1315833
v -0.03697392 0.1918175 0.1187108
v 0.0004122853 0.1924683 0.1208149
v -0.02738887 0.04328346 0.07873535
v -0.0261389 0.04589903 -0.1309898
v -0.02497005 0.04009986 -0.08339536
v 0.01238182 0.04275787 -0.08398879
v -0.02923682 0.04371071 0.1266585
v 0.008025885 0.04718816 0.1280644
v 0.009873837 0.0467608 0.08014119
v 0.0103696 -0.1002706 0.009795427
v 0.01009658 -0.08712029 0.02082258
v 0.03689888 -0.08685291 0.02116734
v 0.03717187 -0.1000034 0.01014018
v 0.01057267 -0.09989822 -0.006282449
v 0.03737497 -0.09963095 -0.005937755
v 0.03737274 -0.08598399 -0.01634771
v 0.01057044 -0.08625138 -0.01669246
v 0.03713581 -0.08641851 0.002409816
v 0.03727341 -0.09981716 0.002101243
v 0.03815004 -0.2019572 0.01315427
v 0.01134777 -0.2022246 0.01280951
v 0.01002666 -0.07359743 0.01577193
v 0.01014087 -0.06792772 0.002497077
v 0.03694314 -0.06766033 0.00284183
v 0.03682894 -0.07333016 0.01611668
v 0.03848851 -0.2013366 -0.01364225
v 0.03837433 -0.2070065 -0.000367403
v 0.01168624 -0.201604 -0.01398695
v 0.01157203 -0.2072737 -0.0007121563
v 0.03716743 -0.07270944 -0.01067984
v 0.01036513 -0.07297683 -0.01102459
vn -2.156864E-07 0.03744708 0.9992987
vn 2.06199E-08 0.07205182 -0.9974009
vn -8.110947E-09 -0.8342459 0.5513928
vn -1.167296E-07 1 1.471393E-10
vn 1 2.412811E-07 8.483799E-08
vn -1 -1.244234E-07 -9.66054E-08
vn 1.088558E-07 -0.8671909 -0.4979758
vn 0.04892223 -0.775544 -0.6293951
vn 0.9982693 0.01737746 0.0561822
vn 0.0178153 -0.9998146 -0.007305033
vn -0.01781529 0.9998146 0.007305034
vn 0.9982694 0.01737723 0.05618207
vn -0.9982694 -0.01737745 -0.05618204
vn 0.02109933 0.7859042 -0.6179882
vn -0.9982694 -0.0173773 -0.05618186
vn -0.0210995 -0.7859043 0.6179882
vn 0.9997572 -0.0205121 0.008048338
vn -0.9982694 -0.01737727 -0.05618201
vn -0.04892227 0.7755437 0.6293954
vn 0.9982694 0.01737727 0.0561819
vn 0.05437913 0.09096331 -0.9943684
vn 0.05525875 0.04967906 -0.9972355
vn -0.999528 0.002774089 -0.03059822
vn -0.0575638 0.09325219 0.9939771
vn 0.06851648 -0.9901222 -0.1223259
vn 0.9996438 -0.007854731 -0.02550736
vn 0.01081889 0.07065468 0.9974422
vn -0.02087627 0.07069676 -0.9972794
vn -0.9994791 0.01806523 0.02674694
vn -0.9985249 -0.05283424 -0.01251176
vn -0.04961889 0.04907635 0.9975618
vn 0.9985207 0.0529463 0.0123734
vn 0.0924461 -0.99564 0.01244129
vn 0.9973724 0.06173463 0.0379087
vn -0.9973861 -0.06151192 -0.03791141
vn 0.02838574 0.09800446 -0.9947811
vn -0.003445894 -0.642576 0.7662143
vn 0.01627396 -0.6064169 -0.7949803
vn -0.9998676 -0.009973037 -0.01286045
vn 0.9998676 0.009973031 0.01286045
vn -0.01314907 0.02942155 0.9994806
vn -0.01422259 0.9195832 0.3926378
vn 0.9998676 0.00997305 0.01286045
vn 0.01206977 0.07566261 -0.9970604
vn -0.9998676 -0.009973049 -0.01286045
vn 0.004843604 -0.9367804 0.3498845
vn 0.007910532 0.3927688 -0.9196033
vn -0.01553699 0.3497745 0.9367051
vn -0.004843625 0.9367808 -0.3498833
vn -0.9998676 -0.009972929 -0.01286044
vn 0.9998676 0.009973165 0.01286059
vn 0.9998676 0.009973171 0.01286031
vn 0.9998676 0.009973072 0.01286045
vn 0.0142226 -0.9195828 -0.392639
vt 0.1075959 0.02475646
vt 0.1112475 0.01763851
vt 0.1350077 0.02982801
vt 0.131356 0.03694596
vt -0.1004313 0.01753772
vt -0.1255241 0.02940579
vt -0.1289445 0.02217388
vt -0.1038517 0.01030581
vt 0.02050539 -0.02754915
vt -0.001252311 -0.02706507
vt -0.001430255 -0.0350631
vt 0.02032744 -0.03554717
vt 0.05185162 -0.0102434
vt 0.05454231 -0.01777733
vt 0.08685489 -0.006237122
vt 0.0841642 0.001296815
vt 0.02517064 0.1116027
vt 0.03986767 0.133899
vt 0.01194725 0.1538422
vt -0.005772226 0.1324759
vt 0.003421829 0.1123907
vt -0.02517062 0.1116027
vt -0.003421817 0.1123907
vt 0.005772238 0.1324759
vt -0.01194724 0.1538422
vt -0.03986765 0.133899
vt -0.101181 0.02550275
vt -0.1204648 0.03627662
vt -0.1243667 0.02929269
vt -0.1050829 0.01851882
vt -0.1292385 0.04623381
vt -0.1312422 0.04306979
vt -0.1276844 0.04081676
vt -0.1256807 0.04398078
vt 0.04401419 0.1531647
vt 0.04420974 0.1579568
vt 0.03953454 0.1581476
vt 0.03933898 0.1533555
vt -0.06322245 -0.005957616
vt -0.07366417 -0.001548123
vt -0.07512112 -0.004998205
vt -0.0646794 -0.0094077
vt 0.06046238 -0.007123181
vt 0.06191934 -0.01057326
vt 0.07788119 -0.00383264
vt 0.07642423 -0.0003825578
vt 0.05256887 0.145729
vt 0.057287 0.1465902
vt 0.04420968 0.1579568
vt 0.04401412 0.1531647
vt -0.0525689 0.145729
vt -0.04401415 0.1531647
vt -0.04420971 0.1579568
vt -0.05728703 0.1465902
vt -0.03692985 -0.03106337
vt -0.03683158 -0.03480719
vt -0.0321541 -0.03468441
vt -0.03225237 -0.0309406
vt -0.04420965 0.1579568
vt -0.04401409 0.1531647
vt -0.03933889 0.1533555
vt -0.03953444 0.1581476
vt 0.03683158 -0.03480722
vt 0.03692985 -0.0310634
vt 0.03225237 -0.03094063
vt 0.03215411 -0.03468444
vt 0.02267803 0.1562975
vt 0.02241708 0.1610864
vt 0.01337762 0.1499563
vt -0.05256888 0.145729
vt -0.057287 0.1465902
vt -0.05804311 0.1424474
vt -0.05332499 0.1415863
vt 0.1312422 0.04306981
vt 0.1292385 0.04623384
vt 0.1256807 0.0439808
vt 0.1276844 0.04081678
vt 0.05728698 0.1465902
vt 0.05256885 0.1457291
vt 0.05332496 0.1415863
vt 0.05804309 0.1424474
vt -0.1373 0.02870277
vt -0.1388348 0.02528658
vt -0.1284331 0.02113334
vt -0.1414669 0.03298504
vt -0.1430542 0.02959296
vt -0.1301548 0.02292199
vt -0.03035503 0.1599357
vt -0.03040241 0.1551399
vt -0.02433479 0.1455348
vt 0.1467438 0.03899195
vt 0.1449998 0.04230621
vt 0.1367849 0.03352452
vt -0.08746365 0.01345514
vt -0.09195285 0.01514319
vt -0.09327099 0.01163773
vt -0.0887818 0.009949677
vt 0.007761403 0.1511848
vt 0.01143119 0.1480969
vt 0.01684634 0.1578309
vt 0.1425913 0.04297013
vt 0.1327489 0.03775457
vt 0.1342392 0.03431878
vt -0.126328 0.02539294
vt -0.1249757 0.02888538
vt -0.1378297 0.03523887
vt -0.009430949 0.1477264
vt -0.005728005 0.1507744
vt -0.01415184 0.1626039
vt -0.05050657 0.1441611
vt -0.05520891 0.1451047
vt -0.04635838 0.1331776
vt 0.1473115 0.0372016
vt 0.145616 0.04054079
vt 0.1323892 0.03443988
vt 0.1338249 0.03098097
vt 0.05524062 0.1449055
vt 0.05053834 0.1439618
vt 0.04651754 0.1332404
vt -0.05516511 0.001041039
vt -0.05649634 -0.002459478
vt -0.05201349 -0.004164281
vt -0.05068227 -0.0006637635
vt 0.05734252 0.1413766
vt 0.04926597 0.1340197
vt 0.05285739 0.130841
vt -0.05274278 0.1307625
vt -0.04915056 0.1339402
vt -0.05736316 0.1415559
vt -0.1274515 0.02156048
vt -0.1261969 0.02508918
vt -0.1363721 0.02906663
vt 0.05350885 -0.02137438
vt 0.05520921 -0.02114026
vt 0.05484357 -0.01848473
vt 0.05314321 -0.01871886
vt -0.1261561 0.04403203
vt -0.1247537 0.04631653
vt -0.1262165 0.04721447
vt -0.1276189 0.04492997
vt -0.02156177 0.1296532
vt -0.02030094 0.1306517
vt -0.02029252 0.1323681
vt -0.02323444 0.1300382
vt 0.02156176 0.1296532
vt 0.02323444 0.1300382
vt 0.02176348 0.1312032
vt 0.02093135 0.1301525
vt 0.1184496 0.02745322
vt 0.1172497 0.02985024
vt 0.1081284 0.0252842
vt 0.1093283 0.02288718
vt 0.1036434 0.02293928
vt 0.1049175 0.02361785
vt 0.1036575 0.0259838
vt 0.1023834 0.02530523
vt 0.02156177 0.1296532
vt 0.02093136 0.1301525
vt 0.02030094 0.1306517
vt 0.0135565 0.1229994
vt 0.01427434 0.121747
vt 0.01565788 0.1213351
vt -0.1120103 0.02318755
vt -0.1131316 0.02075275
vt -0.1038666 0.01648594
vt -0.1027453 0.01892073
vt -0.02030095 0.1306517
vt -0.02156177 0.1296532
vt -0.01565788 0.1213351
vt -0.01427434 0.121747
vt -0.0135565 0.1229994
vt -0.02422874 -0.02466325
vt -0.0237663 -0.02202286
vt -0.02518819 -0.02177383
vt -0.02565063 -0.02441422
vt -0.08732474 -0.0003108138
vt -0.08870538 0.0001106437
vt -0.08948801 -0.00245315
vt -0.08810736 -0.002874608
vt 0.1275723 0.04202148
vt 0.1288165 0.0427535
vt 0.1274572 0.04506386
vt 0.126213 0.04433186
vt 0.02055162 -0.02530726
vt 0.02197351 -0.02505823
vt 0.02151107 -0.02241783
vt 0.02008918 -0.02266687
vt -0.0202925 0.1323681
vt -0.0215449 0.133086
vt -0.02292844 0.1326741
vt -0.02364628 0.1314217
vt -0.02323442 0.1300382
vt 0.02323449 0.1300382
vt 0.02364634 0.1314217
vt 0.02292851 0.1326741
vt 0.02176353 0.1312031
vt 0.02292845 0.1326741
vt 0.02154492 0.133086
vt 0.02029251 0.1323681
vt 0.02176347 0.1312031
vt 0.02176348 0.1312031
vt 0.02029253 0.1323681
vt 0.02030094 0.1306517
vt 0.02093136 0.1301525
vt -0.09908833 0.02355039
vt -0.1003624 0.02422896
vt -0.1016225 0.021863
vt -0.1003484 0.02118443
o group331019317
g mesh331019317
usemtl mat16
f 4/4/1 3/3/1 2/2/1 1/1/1
f 8/8/2 7/7/2 6/6/2 5/5/2
f 2/12/3 10/11/3 9/10/3 1/9/3
f 6/16/4 7/15/4 3/14/4 4/13/4
f 9/21/5 5/20/5 6/19/5 4/18/5 1/17/5
f 3/26/6 7/25/6 8/24/6 10/23/6 2/22/6
f 10/30/7 8/29/7 5/28/7 9/27/7
o group871613733
g mesh871613733
usemtl mat15
f 14/34/8 13/33/8 12/32/8 11/31/8
f 18/38/9 17/37/9 16/36/9 15/35/9
f 12/42/10 19/41/10 15/40/10 11/39/10
f 16/46/11 22/45/11 21/44/11 20/43/11
f 15/50/12 16/49/12 20/48/12 11/47/12
f 21/54/13 22/53/13 19/52/13 12/51/13
f 17/58/14 23/57/14 22/56/14 16/55/14
f 23/62/15 24/61/15 19/60/15 22/59/15
f 24/66/16 18/65/16 15/64/16 19/63/16
f 25/69/17 17/68/17 18/67/17
f 13/73/18 26/72/18 21/71/18 12/70/18
f 26/77/19 27/76/19 20/75/19 21/74/19
f 27/81/20 14/80/20 11/79/20 20/78/20
f 28/84/21 13/83/21 14/82/21
f 29/87/22 23/86/22 17/85/22
f 30/90/23 24/89/23 23/88/23
f 30/93/24 18/92/24 24/91/24
f 30/97/25 29/96/25 25/95/25 31/94/25
f 18/100/26 31/99/26 25/98/26
f 30/103/27 31/102/27 18/101/27
f 17/106/28 25/105/28 29/104/28
f 23/109/29 29/108/29 30/107/29
f 32/112/30 26/111/30 13/110/30
f 32/116/31 33/115/31 27/114/31 26/113/31
f 33/119/32 14/118/32 27/117/32
f 33/123/33 32/122/33 28/121/33 34/120/33
f 33/126/34 34/125/34 14/124/34
f 13/129/35 28/128/35 32/127/35
f 14/132/36 34/131/36 28/130/36
o group1013003272
g mesh1013003272
usemtl mat17
f 38/136/37 37/135/37 36/134/37 35/133/37
f 42/140/38 41/139/38 40/138/38 39/137/38
f 36/144/39 42/143/39 39/142/39 35/141/39
f 44/148/40 43/147/40 37/146/40 38/145/40
f 46/152/41 45/151/41 38/150/41 35/149/41
f 50/156/42 49/155/42 48/154/42 47/153/42
f 45/162/43 52/161/43 51/160/43 40/159/43 44/158/43 38/157/43
f 51/166/44 53/165/44 39/164/44 40/163/44
f 53/171/45 54/170/45 46/169/45 35/168/45 39/167/45
f 54/175/46 52/174/46 45/173/46 46/172/46
f 42/179/47 56/178/47 55/177/47 41/176/47
f 37/183/48 50/182/48 47/181/48 36/180/48
f 49/187/49 55/186/49 56/185/49 48/184/49
f 36/192/50 47/191/50 48/190/50 56/189/50 42/188/50
f 43/196/51 49/195/51 50/194/51 37/193/51
f 43/200/52 41/199/52 55/198/52 49/197/52
f 44/204/53 40/203/53 41/202/53 43/201/53
f 54/208/54 53/207/54 51/206/54 52/205/54
